<?xml version="1.0" encoding="utf-8"?>
<!-- Generator: Adobe Illustrator 16.0.0, SVG Export Plug-In . SVG Version: 6.00 Build 0)  -->
<!DOCTYPE svg PUBLIC "-//W3C//DTD SVG 1.1//EN" "http://www.w3.org/Graphics/SVG/1.1/DTD/svg11.dtd">
<svg version="1.1" id="Calque_1" xmlns="http://www.w3.org/2000/svg" xmlns:xlink="http://www.w3.org/1999/xlink" x="0px" y="0px"
	 width="34.809px" height="36.75px" viewBox="0 0 34.809 36.75" enable-background="new 0 0 34.809 36.75" xml:space="preserve">
	 <style>
	    svg {
	        fill: #fff;
	    }
     </style>
<path fill-rule="evenodd" clip-rule="evenodd" d="M32.197,1.433H2.611c-0.805,0-1.458,0.617-1.458,1.376v27.938
	c0,0.76,0.653,1.377,1.458,1.377H14.96l2.106,2.54l2.313-2.54h12.818c0.806,0,1.458-0.617,1.458-1.377V2.81
	C33.656,2.05,33.003,1.433,32.197,1.433z"/>
<path fill="#009640" d="M17.031,36.189l-2.541-3.064H2.611c-1.355,0-2.458-1.066-2.458-2.377V2.81c0-1.311,1.103-2.376,2.458-2.376
	h29.586c1.355,0,2.458,1.066,2.458,2.376v27.938c0,1.311-1.103,2.377-2.458,2.377H19.821L17.031,36.189z M2.611,2.433
	c-0.248,0-0.458,0.172-0.458,0.376v27.938c0,0.204,0.21,0.377,0.458,0.377H15.43l1.672,2.016l1.836-2.016h13.26
	c0.249,0,0.458-0.173,0.458-0.377V2.81c0-0.204-0.21-0.376-0.458-0.376H2.611z"/>
<g>
	<path fill-rule="evenodd" clip-rule="evenodd" fill="#009640" d="M29.463,12.252c-0.281,0.347-0.564,0.692-0.842,1.042
		c-0.287,0.36-0.57,0.723-0.86,1.092c-0.673-0.677-1.412-1.237-2.22-1.709c-1.444-0.845-3.002-1.385-4.638-1.713
		c-1.518-0.304-3.051-0.408-4.593-0.315c-2.612,0.158-5.091,0.785-7.348,2.159c-0.659,0.401-1.274,0.864-1.823,1.409
		c-0.07,0.07-0.122,0.159-0.201,0.264c-0.159-0.22-0.279-0.386-0.399-0.551c-0.397-0.546-0.795-1.09-1.193-1.635
		c0-0.014,0-0.027,0-0.041c0.795-0.7,1.646-1.325,2.563-1.856c2.414-1.399,5.022-2.173,7.796-2.411
		c0.245-0.021,0.49-0.049,0.735-0.073c0.67,0,1.339,0,2.009,0c0.051,0.012,0.101,0.03,0.152,0.037
		c0.88,0.109,1.77,0.171,2.639,0.334c2.724,0.51,5.214,1.57,7.421,3.265c0.269,0.206,0.534,0.416,0.801,0.624
		C29.463,12.199,29.463,12.226,29.463,12.252z"/>
	<path fill-rule="evenodd" clip-rule="evenodd" fill="#009640" d="M26.076,16.536c-0.57,0.729-1.132,1.445-1.7,2.171
		c-0.247-0.209-0.477-0.422-0.725-0.611c-1.157-0.89-2.475-1.425-3.897-1.696c-2.19-0.417-4.34-0.273-6.424,0.554
		c-1.153,0.458-2.179,1.11-2.999,2.056c-0.021,0.025-0.032,0.06-0.062,0.116c-0.575-0.801-1.12-1.559-1.67-2.325
		c0.549-0.54,1.154-0.989,1.808-1.374c1.493-0.88,3.107-1.408,4.819-1.651c2.598-0.368,5.134-0.141,7.591,0.808
		C24.005,15.044,25.095,15.672,26.076,16.536z"/>
	<path fill-rule="evenodd" clip-rule="evenodd" fill="#009640" d="M13.141,23.126c-0.455-0.634-0.914-1.273-1.372-1.912
		c3-2.446,7.691-2.468,10.713-0.093c-0.489,0.623-0.977,1.246-1.455,1.856C18.36,21.386,15.75,21.423,13.141,23.126z"/>
	<circle fill-rule="evenodd" clip-rule="evenodd" fill="#009640" cx="17.217" cy="26.21" r="1.976"/>
</g>
</svg>
